<svg xmlns="http://www.w3.org/2000/svg" viewBox="0 0 48 48">
  <defs>
    <radialGradient id="g" cx="50%" cy="40%" r="70%">
      <stop offset="0%" stop-color="#fff2c2" stop-opacity="0.9"/>
      <stop offset="45%" stop-color="#d4af37" stop-opacity="0.9"/>
      <stop offset="100%" stop-color="#7a5a12" stop-opacity="0.9"/>
    </radialGradient>
    <linearGradient id="ring" x1="0%" y1="0%" x2="0%" y2="100%">
      <stop offset="0%" stop-color="#f8e6a8"/>
      <stop offset="50%" stop-color="#d4af37"/>
      <stop offset="100%" stop-color="#9b7a22"/>
    </linearGradient>
    <filter id="softGlow" x="-40%" y="-40%" width="180%" height="180%">
      <feGaussianBlur stdDeviation="1.2" result="b"/>
      <feMerge>
        <feMergeNode in="b"/>
        <feMergeNode in="SourceGraphic"/>
      </feMerge>
    </filter>
    <pattern id="knot" width="12" height="12" patternUnits="userSpaceOnUse">
      <path d="M0,6 C0,2.686 2.686,0 6,0 C9.314,0 12,2.686 12,6
               M0,6 C0,9.314 2.686,12 6,12 C9.314,12 12,9.314 12,6" 
            fill="none" stroke="#c7a63b" stroke-width="1.1" stroke-linecap="round" opacity="0.45"/>
    </pattern>
  </defs>

  <!-- Teeth (12 rectangles rotated) -->
  <g transform="translate(24,24)">
    <g fill="url(#ring)" filter="url(#softGlow)">
      <!-- draw 12 teeth -->
      <!-- base tooth -->
      <rect x="-2" y="-22" width="4" height="7" rx="1"/>
      <g transform="rotate(30)"><rect x="-2" y="-22" width="4" height="7" rx="1"/></g>
      <g transform="rotate(60)"><rect x="-2" y="-22" width="4" height="7" rx="1"/></g>
      <g transform="rotate(90)"><rect x="-2" y="-22" width="4" height="7" rx="1"/></g>
      <g transform="rotate(120)"><rect x="-2" y="-22" width="4" height="7" rx="1"/></g>
      <g transform="rotate(150)"><rect x="-2" y="-22" width="4" height="7" rx="1"/></g>
      <g transform="rotate(180)"><rect x="-2" y="-22" width="4" height="7" rx="1"/></g>
      <g transform="rotate(210)"><rect x="-2" y="-22" width="4" height="7" rx="1"/></g>
      <g transform="rotate(240)"><rect x="-2" y="-22" width="4" height="7" rx="1"/></g>
      <g transform="rotate(270)"><rect x="-2" y="-22" width="4" height="7" rx="1"/></g>
      <g transform="rotate(300)"><rect x="-2" y="-22" width="4" height="7" rx="1"/></g>
      <g transform="rotate(330)"><rect x="-2" y="-22" width="4" height="7" rx="1"/></g>
    </g>
  </g>

  <!-- Ring body -->
  <circle cx="24" cy="24" r="16.8" fill="url(#g)" stroke="#b18b2a" stroke-width="1.2"/>
  <circle cx="24" cy="24" r="12.6" fill="#1a1a1a" stroke="#d4af37" stroke-width="1.1"/>
  
  <!-- Celtic knot motif inside -->
  <g opacity="0.9">
    <circle cx="24" cy="24" r="10" fill="url(#knot)"/>
    <path d="M24 15
             C19 15, 15 19, 15 24
             C15 29, 19 33, 24 33
             C29 33, 33 29, 33 24
             C33 19, 29 15, 24 15 Z"
          fill="none" stroke="#e7cc6a" stroke-width="1.1"/>
    <path d="M18 24 C18 20.7 20.7 18 24 18
             C27.3 18 30 20.7 30 24
             C30 27.3 27.3 30 24 30
             C20.7 30 18 27.3 18 24 Z"
          fill="none" stroke="#9f7f26" stroke-width="1"/>
  </g>
</svg>
